Prickly, Grotkey and Finster head home during a snowstorm and remember the times with T.J. and the gang. When they get stuck in a snowbank, Prickly blames it on T.J. and the others, although Grotkey says there is a logical explanation over that, considering that T.J. and the kids are not around the snowbank. As Grotkey and Finster tell their stories about their experiences with T.J. and the gang, they are rescued, from where they are trapped, by T.J. and the gang, and Prickly admits T.J. and the others aren't so bad, to which Finster agrees, saying it really makes her feel more warm and fuzzy than before. The film end with T.J. and the gang singing their version of Jingle Bells, describing about their classmates and teachers.

Format                           : MPEG-4
Format profile                   : Base Media / Version 2
Codec ID                         : mp42
File size                        : 812 MiB
Duration                         : 1h 2mn
Overall bit rate                 : 1 822 Kbps
Encoded date                     : UTC 2010-01-28 14:35:25
Tagged date                      : UTC 2010-01-28 17:24:32
Writing application              : HandBrake 0.9.3 2008112300

Video
ID                               : 1
Format                           : AVC
Format/Info                      : Advanced Video Codec
Format profile                   : Main@L4.0
Format settings, CABAC           : Yes
Format settings, ReFrames        : 3 frames
Codec ID                         : avc1
Codec ID/Info                    : Advanced Video Coding
Duration                         : 1h 2mn
Bit rate mode                    : Variable
Bit rate                         : 1 657 Kbps
Nominal bit rate                 : 1 632 Kbps
Width                            : 710 pixels
Height                           : 480 pixels
Display aspect ratio             : 4:3
Frame rate mode                  : Variable
Frame rate                       : 24.335 fps
Minimum frame rate               : 14.986 fps
Maximum frame rate               : 102.345 fps
Original frame rate              : 23.976 fps
Resolution                       : 24 bits
Colorimetry                      : 4:2:0
Scan type                        : Progressive
Bits/(Pixel*Frame)               : 0.200
Stream size                      : 738 MiB (91%)
Writing library                  : x264 core 65


Audio
ID                               : 2
Format                           : AAC
Format/Info                      : Advanced Audio Codec
Format version                   : Version 4
Format profile                   : LC
Format settings, SBR             : No
Codec ID                         : 40
Duration                         : 1h 2mn
Bit rate mode                    : Variable
Bit rate                         : 160 Kbps
Maximum bit rate                 : 209 Kbps
Channel(s)                       : 2 channels
Channel positions                : L R
Sampling rate                    : 48.0 KHz
Resolution                       : 16 bits
Stream size                      : 71.3 MiB (9%)
Language                         : English
Encoded date                     : UTC 2010-01-28 14:35:25
Tagged date                      : UTC 2010-01-28 17:24:28

